<?xml version="1.0" encoding="utf-8"?>
<!-- Generator: Adobe Illustrator 23.0.6, SVG Export Plug-In . SVG Version: 6.00 Build 0)  -->
<svg version="1.1" id="Layer_1" xmlns="http://www.w3.org/2000/svg" xmlns:xlink="http://www.w3.org/1999/xlink" x="0px" y="0px"
	 viewBox="0 0 614.2 614.2" style="enable-background:new 0 0 614.2 614.2;" xml:space="preserve">
<style type="text/css">
	.st0{display:none;}
	.st1{display:inline;fill:#034A38;}
	.st2{fill:#034A38;}
	.st3{display:inline;}
	.st4{display:none;fill:#034A38;}
	.st5{display:inline;clip-path:url(#SVGID_2_);}
	.st6{fill:#FFFFFF;}
	.st7{fill:#020203;}
	.st8{display:inline;clip-path:url(#SVGID_2_);fill:none;}
	.st9{fill-rule:evenodd;clip-rule:evenodd;fill:#034A38;}
	.st10{fill-rule:evenodd;clip-rule:evenodd;fill:#1F6F48;}
</style>
<g class="st0">
	<path class="st1" d="M603.1,89.3h-89.3V34.2c0-18.9-15.3-34.2-34.2-34.2h-66.4H265.3h-85.9c-18.9,0-34.2,15.3-34.2,34.2v55.1h-134
		C5,89.3,0,94.3,0,100.5v502.5c0,6.2,5,11.2,11.2,11.2h44.7h312.7h234.5c6.2,0,11.2-5,11.2-11.2V100.5
		C614.2,94.3,609.2,89.3,603.1,89.3z M491.4,34.2v55.1h-44.7V33.6c0-4-0.8-7.7-2.1-11.2h34.9C486.1,22.3,491.4,27.7,491.4,34.2z
		 M413.1,22.3c6.2,0,11.2,5,11.2,11.2v55.8H254.1V33.6c0-6.2,5-11.2,11.2-11.2H413.1z M167.5,34.2c0-6.5,5.3-11.9,11.9-11.9h54.4
		c-1.3,3.5-2.1,7.3-2.1,11.2v55.8h-64.2V34.2z M22.3,111.7h134h86.5H402v480.2h-22.3V145.2c0-6.2-5-11.2-11.2-11.2H55.8
		c-6.2,0-11.2,5-11.2,11.2v446.7H22.3V111.7z M67,591.9V156.3h290.4v435.5H67z M591.9,591.9H424.4V111.7h11.2h67h89.3V591.9z"/>
	<path class="st1" d="M323.9,201H100.5c-6.2,0-11.2,5-11.2,11.2v78.2c0,6.2,5,11.2,11.2,11.2h223.4c6.2,0,11.2-5,11.2-11.2v-78.2
		C335,206,330,201,323.9,201z M312.7,279.2h-201v-55.8h201V279.2z"/>
	<path class="st1" d="M323.9,346.2c-6.2,0-11.2,5-11.2,11.2h-201c0-6.2-5-11.2-11.2-11.2c-6.2,0-11.2,5-11.2,11.2v11.2
		c0,6.2,5,11.2,11.2,11.2h223.4c6.2,0,11.2-5,11.2-11.2v-11.2C335,351.2,330,346.2,323.9,346.2z"/>
	<path class="st1" d="M323.9,390.9c-6.2,0-11.2,5-11.2,11.2h-201c0-6.2-5-11.2-11.2-11.2c-6.2,0-11.2,5-11.2,11.2v11.2
		c0,6.2,5,11.2,11.2,11.2h223.4c6.2,0,11.2-5,11.2-11.2V402C335,395.9,330,390.9,323.9,390.9z"/>
	<path class="st1" d="M297.5,494.4c-20.7,0-37.6,16.8-37.6,37.6c0,20.7,16.8,37.6,37.6,37.6c20.7,0,37.6-16.8,37.6-37.6
		C335,511.3,318.2,494.4,297.5,494.4z M297.5,547.2c-8.4,0-15.2-6.8-15.2-15.2c0-8.4,6.8-15.2,15.2-15.2c8.4,0,15.2,6.8,15.2,15.2
		C312.7,540.4,305.9,547.2,297.5,547.2z"/>
	<path class="st1" d="M216.2,494.4c-20.7,0-37.6,16.8-37.6,37.6c0,20.7,16.8,37.6,37.6,37.6c20.7,0,37.6-16.8,37.6-37.6
		C253.8,511.3,237,494.4,216.2,494.4z M216.2,547.2c-8.4,0-15.2-6.8-15.2-15.2c0-8.4,6.8-15.2,15.2-15.2c8.4,0,15.2,6.8,15.2,15.2
		C231.5,540.4,224.6,547.2,216.2,547.2z"/>
	<path class="st1" d="M134,547.2h-22.3V536c0-6.2-5-11.2-11.2-11.2c-6.2,0-11.2,5-11.2,11.2v22.3c0,6.2,5,11.2,11.2,11.2H134
		c6.2,0,11.2-5,11.2-11.2C145.2,552.2,140.2,547.2,134,547.2z"/>
	<path class="st1" d="M134,491.4h-33.5c-6.2,0-11.2,5-11.2,11.2c0,6.2,5,11.2,11.2,11.2h22.3v11.2c0,6.2,5,11.2,11.2,11.2
		c6.2,0,11.2-5,11.2-11.2v-22.3C145.2,496.4,140.2,491.4,134,491.4z"/>
	<path class="st1" d="M558.4,536h-44.7c-6.2,0-11.2,5-11.2,11.2s5,11.2,11.2,11.2h44.7c6.2,0,11.2-5,11.2-11.2S564.5,536,558.4,536z
		"/>
	<path class="st1" d="M558.4,502.5h-44.7c-6.2,0-11.2,5-11.2,11.2c0,6.2,5,11.2,11.2,11.2h44.7c6.2,0,11.2-5,11.2-11.2
		C569.5,507.5,564.5,502.5,558.4,502.5z"/>
	<path class="st1" d="M558.4,469h-44.7c-6.2,0-11.2,5-11.2,11.2s5,11.2,11.2,11.2h44.7c6.2,0,11.2-5,11.2-11.2S564.5,469,558.4,469z
		"/>
	<path class="st1" d="M558.4,212.2h-44.7c-6.2,0-11.2,5-11.2,11.2c0,6.2,5,11.2,11.2,11.2h44.7c6.2,0,11.2-5,11.2-11.2
		C569.5,217.2,564.5,212.2,558.4,212.2z"/>
	<path class="st1" d="M558.4,178.7h-44.7c-6.2,0-11.2,5-11.2,11.2s5,11.2,11.2,11.2h44.7c6.2,0,11.2-5,11.2-11.2
		S564.5,178.7,558.4,178.7z"/>
	<path class="st1" d="M513.7,167.5h44.7c6.2,0,11.2-5,11.2-11.2s-5-11.2-11.2-11.2h-44.7c-6.2,0-11.2,5-11.2,11.2
		S507.5,167.5,513.7,167.5z"/>
	<path class="st1" d="M558.4,368.5h-44.7c-6.2,0-11.2,5-11.2,11.2c0,6.2,5,11.2,11.2,11.2h44.7c6.2,0,11.2-5,11.2-11.2
		C569.5,373.5,564.5,368.5,558.4,368.5z"/>
	<path class="st1" d="M558.4,335h-44.7c-6.2,0-11.2,5-11.2,11.2c0,6.2,5,11.2,11.2,11.2h44.7c6.2,0,11.2-5,11.2-11.2
		C569.5,340,564.5,335,558.4,335z"/>
	<path class="st1" d="M558.4,301.5h-44.7c-6.2,0-11.2,5-11.2,11.2c0,6.2,5,11.2,11.2,11.2h44.7c6.2,0,11.2-5,11.2-11.2
		C569.5,306.5,564.5,301.5,558.4,301.5z"/>
</g>
<g>
	<path class="st2" d="M600.6,10.9C587.8-2,566.9-2,554.1,10.9l-80.5,80.4C463,92,453,96.5,445.5,103.9L150.7,398.7
		c-8.3,8.3-12.9,19.3-12.9,31c0,11.7,4.6,22.7,12.9,31c8.3,8.3,19.3,12.9,31,12.9c11.7,0,22.7-4.6,31-12.9L507.5,166
		c7.5-7.5,12-17.5,12.6-28.1l80.4-80.5C613.5,44.6,613.5,23.7,600.6,10.9z M585.1,41.9l-73.7,73.7l0,0c-4.3-4.3-11.2-4.3-15.5,0
		c-4.3,4.3-4.3,11.2,0,15.5l2.4,2.4c0,0.1,0,0.2,0,0.3c0.3,6.4-1.9,12.3-6.3,16.7L197.3,445.2c-8.3,8.3-22.7,8.3-31,0
		c-4.1-4.1-6.4-9.7-6.4-15.5c0-5.9,2.3-11.4,6.4-15.5L461,119.5c4.1-4.1,9.5-6.3,15.4-6.3c0.4,0,0.8,0,1.2,0c3.1,0.2,6.1-1,8.3-3.2
		l83.6-83.6c4.3-4.3,11.2-4.3,15.5,0C589.4,30.6,589.4,37.6,585.1,41.9z"/>
	<path class="st2" d="M107.9,344.5c3.9,1.8,8.5,1.1,11.8-1.7l38.8-33.9l-19.6,49c-2.2,5.6,0.5,12,6.1,14.3c1.3,0.5,2.7,0.8,4.1,0.8
		c4.3,0,8.5-2.6,10.2-6.9l36.6-91.4c1.9-4.7,0.3-10.1-3.8-13c-4.1-2.9-9.7-2.6-13.6,0.7l-54.9,48.1v-69.1c0-6.1-4.9-11-11-11
		c-6.1,0-11,4.9-11,11v93.2C101.4,338.8,104,342.7,107.9,344.5z"/>
	<path class="st2" d="M342.6,423.3c-2.9-4.1-8.3-5.7-13-3.8L238.1,456c-5.6,2.2-8.4,8.6-6.1,14.3c2.2,5.6,8.7,8.4,14.3,6.1l49-19.6
		l-33.9,38.8c-2.8,3.2-3.5,7.8-1.7,11.8c1.8,3.9,5.7,6.4,10,6.4h93.2c6.1,0,11-4.9,11-11c0-6.1-4.9-11-11-11h-69.1l48.1-54.9
		C345.2,433,345.5,427.4,342.6,423.3z"/>
	<path class="st2" d="M584.1,526.5H159.7c-1.8-37.4-31.9-67.4-69.2-69.2V21.9c0-6.1-4.9-11-11-11H13.7c-6.1,0-11,4.9-11,11v515.6
		v65.8c0,6.1,4.9,11,11,11h570.4c6.1,0,11-4.9,11-11v-65.8C595.1,531.4,590.2,526.5,584.1,526.5z M137.6,526.5H90.5v-47.1
		C115.7,481.2,135.8,501.3,137.6,526.5z M24.6,32.9h43.9v493.6H24.6V32.9z M573.1,592.3H24.6v-43.9h54.8h493.6V592.3z"/>
	<path class="st2" d="M153.6,241c0.9,0.2,1.8,0.3,2.7,0.3c4.9,0,9.4-3.3,10.6-8.3l32.9-131.6c1.5-5.9-2.1-11.8-8-13.3
		c-5.9-1.5-11.8,2.1-13.3,8l-32.9,131.6C144.2,233.5,147.7,239.5,153.6,241z"/>
	<path class="st2" d="M206.2,229.2c1.6,0.8,3.2,1.2,4.9,1.2c4,0,7.9-2.2,9.8-6.1l21.9-43.9c2.7-5.4,0.5-12-4.9-14.7
		c-5.4-2.7-12-0.5-14.7,4.9l-21.9,43.9C198.6,219.9,200.8,226.5,206.2,229.2z"/>
	<path class="st2" d="M357.3,464.4c1,5.3,5.6,8.9,10.8,8.9c0.7,0,1.4-0.1,2.1-0.2l133.3-25.3c6-1.1,9.9-6.9,8.7-12.8
		c-1.1-5.9-6.8-9.8-12.8-8.7L366,451.5C360.1,452.7,356.2,458.4,357.3,464.4z"/>
	<path class="st2" d="M382.2,419.2c1.4,0,2.9-0.3,4.3-0.9l45.1-19.4c5.6-2.4,8.1-8.8,5.7-14.4c-2.4-5.6-8.9-8.1-14.4-5.7l-45.1,19.4
		c-5.6,2.4-8.1,8.8-5.7,14.4C373.9,416.7,378,419.2,382.2,419.2z"/>
</g>
<g class="st0">
	<g class="st3">
		<path class="st2" d="M383.3,396.7l134.6,134.6c3.7,3.7,9.7,3.7,13.4,0c3.7-3.7,3.7-9.7,0-13.4L396.7,383.3
			c-3.7-3.7-9.7-3.7-13.4,0C379.6,387,379.6,393,383.3,396.7z"/>
		<path class="st2" d="M524.6,536.1c-3.1,0-5.9-1.2-8.1-3.4L381.8,398.1v0v0c-2.2-2.2-3.4-5-3.4-8.1c0-3.1,1.2-5.9,3.4-8.1
			c2.2-2.2,5-3.4,8.1-3.4c3.1,0,5.9,1.2,8.1,3.4l134.6,134.6c4.5,4.5,4.5,11.7,0,16.2C530.5,534.9,527.7,536.1,524.6,536.1z
			 M390,382.5c-2,0-3.9,0.8-5.3,2.2c-1.4,1.4-2.2,3.3-2.2,5.3c0,2,0.8,3.9,2.2,5.3v0l134.6,134.6c1.4,1.4,3.3,2.2,5.3,2.2
			c2,0,3.9-0.8,5.3-2.2c2.9-2.9,2.9-7.7,0-10.6L395.2,384.7C393.8,383.3,392,382.5,390,382.5z"/>
	</g>
	<g class="st3">
		<g>
			<path class="st2" d="M38.1,412.5C4.9,445.8-5.1,495.2,12.8,538.4c1.2,2.9,3.8,5,6.9,5.7c3.1,0.6,6.3-0.4,8.5-2.6L81,488.7
				c7.8-7.8,19.4-11,30.2-8.2c23.5,6.1,31.4,35.5,14.3,52.6l-52.8,52.8c-2.2,2.2-3.2,5.4-2.6,8.5c0.6,3.1,2.7,5.7,5.7,6.9
				c14.3,6,29.3,8.9,44.2,8.9c30,0,59.5-11.8,81.8-34.1c32.8-32.8,42.7-82.2,25.6-124.8l57.6-57.6l10.6,10.6
				c1.8,1.8,4.4,2.8,6.8,2.8c2.5,0,5-1.1,6.7-2.9l3.2-3.4c6-5.8,15.9-5.5,21.2-0.1c5.8,5.8,5.8,15.3,0.1,21l-3.6,3.5
				c-1.8,1.8-2.9,4.2-2.9,6.7c0,2.5,1,5,2.8,6.8l144.8,144.9c19.7,19.5,51.6,19.5,71.1,0l37.8-37.8c19.6-19.6,19.6-51.5,0-71.1
				c-140.7-135.4-145.2-157.1-158-144.9l-3.8,3.6c-5.8,5.8-15.2,5.8-21,0c-5.6-5.6-6.1-14.9,0.1-21.1l3.5-3.6
				c3.6-3.7,3.5-9.6-0.1-13.3l-10.5-10.5l57.6-57.6c42.6,17.1,91.9,7.3,124.8-25.6c33.3-33.3,43.2-82.7,25.3-125.9
				c-1.2-2.9-3.8-5.1-6.9-5.7c-3.1-0.6-6.3,0.4-8.5,2.6l-52.8,52.8c-17.2,17.2-46.6,9.1-52.7-14.4c-2.8-10.7,0.4-22.2,8.2-30.1
				l52.8-52.8c2.2-2.2,3.2-5.4,2.6-8.5c-0.6-3.1-2.7-5.7-5.7-6.9c-43.2-18-92.7-8.1-126,25.3c-32.8,32.8-42.7,82.2-25.6,124.8
				l-86,86L165.1,113.2l9.7-9.7c2-2,3-4.8,2.7-7.6c-0.3-2.8-1.8-5.3-4.1-6.9L69.3,17.6c-3.7-2.6-8.8-2.1-12,1.1L18.8,57.2
				c-3.2,3.2-3.7,8.3-1.1,12l71.2,104.3c1.6,2.3,4.1,3.8,6.9,4.1c2.8,0.3,5.6-0.7,7.6-2.7l9.9-9.9l135.7,135.9l-86.1,86.1
				C120.3,369.8,71,379.7,38.1,412.5z M431.8,349.7L570.1,488c5.9,5.9,9.2,13.8,9.2,22.2c0,8.4-3.3,16.2-9.2,22.2l-37.8,37.8
				c-12.2,12.2-32.1,12.2-44.3,0L349.8,431.9c10.2-13.3,9.2-32.4-2.9-44.6c-11.4-11.4-31.1-13.1-44.5-2.9l-4-4l82-82.2l4.1,4.1
				c-10.1,13.2-9.3,32.2,3,44.4C399.1,358.5,419.1,359.5,431.8,349.7z M113.2,142.2c-2.5,0-4.9,1-6.7,2.8l-8.5,8.5L37.7,65
				l27.3-27.3l88.3,60.4l-8.4,8.4c-1.8,1.8-2.8,4.2-2.8,6.7s1,4.9,2.8,6.7l142.5,142.4l-25.2,25.2L119.9,144.9
				C118.2,143.2,115.8,142.2,113.2,142.2z M171.7,404.9l233.2-233.2c2.8-2.8,3.6-7.1,1.9-10.7c-17.3-36.7-9.7-80.7,19.1-109.5
				c24.4-24.4,59-33.8,91.4-25.8l-42,42c-12.5,12.5-17.6,31-13.1,48.2c9.7,37.6,56.8,50.6,84.4,23L588.5,97
				c7.9,32.4-1.5,67-25.8,91.3c-28.8,28.8-72.8,36.5-109.4,19.1c-3.6-1.7-7.9-1-10.7,1.9L209.3,442.5c-2.8,2.8-3.6,7.1-1.9,10.7
				c17.3,36.7,9.7,80.7-19.1,109.5c-24.4,24.4-59,33.8-91.4,25.8l42-42c27.3-27.3,14.9-74.5-23-84.3c-17.2-4.5-35.7,0.6-48.3,13.1
				l-41.9,41.9c-7.9-32.4,1.5-67,25.8-91.3c28.8-28.8,72.8-36.5,109.4-19.1C164.6,408.5,168.9,407.7,171.7,404.9z"/>
		</g>
		<g>
			<path class="st2" d="M119.9,612.2c-15.5,0-30.6-3-44.9-9c-3.5-1.5-6.1-4.6-6.8-8.3c-0.7-3.8,0.4-7.6,3.1-10.3l52.8-52.8
				c7.5-7.5,10.4-18.2,7.5-28.5c-2.8-10.3-10.6-18-21-20.7c-10.1-2.6-20.9,0.3-28.3,7.7l-52.8,52.8c-2.7,2.7-6.6,3.9-10.3,3.1
				c-3.8-0.8-6.9-3.3-8.3-6.9c-18.2-44-8.1-94.2,25.8-128.1c33.1-33.1,82.3-43.4,125.7-26.5l83.8-83.8L113.2,167.8l-8.5,8.5
				c-2.4,2.4-5.8,3.6-9.2,3.3c-3.4-0.3-6.4-2.1-8.4-4.9L16,70.3c-3.1-4.5-2.5-10.7,1.4-14.5l38.4-38.4c3.9-3.9,10-4.5,14.6-1.4
				l104.2,71.3c2.8,1.9,4.6,5,4.9,8.4c0.3,3.4-0.9,6.7-3.3,9.2l-8.3,8.3l133.1,132.9l83.7-83.7C367.7,119,378,69.8,411.1,36.7
				C445,2.8,495.3-7.3,539.3,11c3.5,1.5,6.1,4.6,6.8,8.3c0.7,3.8-0.4,7.6-3.1,10.3l-52.8,52.8c-7.3,7.3-10.3,18.1-7.7,28.2
				c2.7,10.3,10.4,18.2,20.8,21c10.3,2.8,21,0,28.6-7.6l52.8-52.8c2.7-2.7,6.6-3.9,10.3-3.1c3.8,0.8,6.9,3.3,8.3,6.9
				c18.2,44,8.1,94.2-25.8,128c-33.1,33.1-82.3,43.4-125.7,26.5l-55.3,55.3l9.1,9.1c4.4,4.4,4.4,11.6,0.2,16l-3.5,3.6
				c-5.2,5.2-5.3,13.3-0.2,18.4c5,5,13.2,5,18.2,0l3.8-3.6c4.9-4.7,9.2-4.7,15.7,0.1c6.4,4.7,15.6,14.3,32.3,31.8
				c22.5,23.4,56.4,58.8,112.6,113c9.9,9.9,15.3,23,15.3,37c0,14-5.4,27.1-15.3,37L547.1,585c-20.3,20.3-53.4,20.3-73.9,0
				L328.4,440.1c-2.2-2.2-3.4-5.1-3.4-8.2c0-3.1,1.3-6,3.5-8.1l3.6-3.5c4.9-5,4.9-13.1-0.2-18.2c-4.8-4.8-13.4-4.8-18.5,0.1
				l-3.2,3.3c-2.1,2.2-5.1,3.5-8.1,3.5c-3.1,0-6.1-1.3-8.2-3.4l-9.2-9.2l-55.3,55.3c16.9,43.4,6.6,92.6-26.5,125.7
				C180.7,599.9,151.2,612.2,119.9,612.2z M103.3,477.5c2.8,0,5.6,0.4,8.4,1.1c11.7,3,20.6,11.8,23.8,23.5c3.2,11.7,0,23.8-8.6,32.4
				l-52.8,52.8c-1.8,1.8-2.5,4.3-2.1,6.8c0.5,2.5,2.2,4.5,4.5,5.5c13.9,5.8,28.5,8.7,43.4,8.7c30.2,0,58.8-11.9,80.4-33.5
				c32.3-32.3,42.1-80.4,25.1-122.6l-0.5-1.2l59.9-59.9l12,12c1.4,1.4,3.4,2.2,5.4,2.2c2,0,3.9-0.9,5.3-2.3l3.2-3.4
				c6.6-6.4,17.8-6.4,24.1-0.1c6.6,6.6,6.7,17.3,0.1,23.8l-3.6,3.5c-1.4,1.4-2.3,3.3-2.3,5.3c0,2,0.8,4,2.2,5.4L476,582.2
				c18.9,18.7,49.6,18.7,68.3,0l37.8-37.8c9.1-9.1,14.1-21.2,14.1-34.2c0-12.9-5-25.1-14.1-34.2c-56.3-54.2-90.3-89.6-112.7-113
				c-16-16.7-25.7-26.8-31.8-31.3c-5.7-4.2-7.7-3.3-10.6-0.5l-3.8,3.6c-6.5,6.5-17.2,6.5-23.7,0c-6.7-6.7-6.6-17.2,0.1-23.9l3.4-3.6
				c2.8-2.9,2.8-7.6-0.1-10.5L391,284.9l59.9-59.9l1.2,0.5c42.2,17,90.4,7.1,122.6-25.1c32.7-32.7,42.5-81.3,24.9-123.7
				c-1-2.3-3-4-5.5-4.5c-2.4-0.5-5,0.3-6.8,2.1l-52.8,52.8c-8.6,8.6-20.7,11.8-32.4,8.6c-11.7-3.2-20.5-12.1-23.6-23.8
				c-2.9-11.4,0.4-23.6,8.7-32l52.8-52.8c1.8-1.8,2.5-4.3,2.1-6.8c-0.5-2.5-2.2-4.5-4.5-5.5C495.3-3,446.6,6.7,413.9,39.5
				c-32.3,32.3-42.1,80.4-25.1,122.6l0.5,1.2l-88.3,88.3L162.3,113.2l11.1-11.1c1.6-1.6,2.4-3.8,2.2-6c-0.2-2.2-1.4-4.2-3.2-5.5
				L68.2,19.3c-3-2-7-1.7-9.5,0.9L20.2,58.6c-2.5,2.5-2.9,6.5-0.9,9.5l71.2,104.3c1.3,1.8,3.3,3,5.5,3.2c2.2,0.2,4.4-0.6,6-2.2
				l11.3-11.3l138.5,138.6l-88.4,88.4l-1.2-0.5c-42.2-17-90.4-7.1-122.6,25.1v0C6.8,446.6-3,495.2,14.6,537.7c1,2.3,3,4,5.5,4.5
				c2.5,0.5,5-0.3,6.8-2.1l52.8-52.8C86,481,94.5,477.5,103.3,477.5z M120.1,593.3c-7.9,0-15.8-1-23.7-2.9l-3.4-0.8l44.5-44.5
				c12.4-12.4,17-29.9,12.4-46.9c-4.6-16.9-17.5-29.7-34.5-34.1c-16.5-4.3-34.3,0.5-46.4,12.6l-44.4,44.4l-0.8-3.4
				c-8.2-33.6,1.6-68.5,26.3-93.2c29.4-29.4,74.2-37.2,111.7-19.5c2.9,1.4,6.3,0.8,8.5-1.5l233.2-233.2c2.2-2.2,2.8-5.7,1.5-8.5
				c-17.7-37.4-9.9-82.3,19.5-111.7c24.8-24.8,59.7-34.6,93.3-26.3l3.4,0.8l-44.5,44.5c-12.1,12.1-16.9,29.8-12.6,46.3
				c4.4,17,17.1,29.9,34.2,34.5c17,4.6,34.5,0,46.9-12.4l44.4-44.4l0.8,3.4c8.2,33.6-1.6,68.5-26.3,93.2
				c-29.4,29.4-74.3,37.2-111.7,19.5c-2.9-1.4-6.3-0.8-8.5,1.5L210.7,443.9c-2.2,2.2-2.8,5.7-1.5,8.5c17.7,37.4,9.9,82.3-19.5,111.7
				C170.7,583.1,145.9,593.3,120.1,593.3z M100.8,587.4c31.2,6.5,63.1-3.1,86.1-26c28.2-28.2,35.7-71.3,18.7-107.2
				c-2.1-4.4-1.2-9.6,2.3-13l233.2-233.2c3.4-3.4,8.6-4.3,13-2.3c35.9,17,79,9.4,107.2-18.8c22.9-22.9,32.5-54.8,26.1-86L548,140.3
				c-13.4,13.4-32.4,18.5-50.8,13.4c-18.4-5-32.2-19-36.9-37.4c-4.6-17.9,0.6-37,13.6-50.1l39.5-39.5c-31.2-6.5-63.1,3.1-86.1,26
				c-28.2,28.2-35.7,71.3-18.7,107.2c2.1,4.4,1.2,9.6-2.3,13L173.1,406.3l0,0c-3.4,3.4-8.6,4.3-13,2.3c-35.9-17-79-9.5-107.2,18.8
				c-22.9,22.9-32.5,54.8-26.1,86l39.4-39.4c13.1-13.1,32.3-18.3,50.2-13.6c18.4,4.8,32.3,18.6,37.3,36.9c5,18.4,0,37.3-13.4,50.7
				L100.8,587.4z M510.1,581.3c-8.5,0-17.1-3.2-23.6-9.7L347.1,432.1l1.1-1.4c9.7-12.6,8.5-30.7-2.8-42c-10.8-10.8-29.6-12-41.9-2.7
				l-1.4,1l-6.6-6.6l84.8-85l6.7,6.7l-1.1,1.4c-9.7,12.6-8.5,30.6,2.8,41.8c10.9,10.9,29.7,12.2,41.8,2.8l1.4-1.1l139.5,139.5
				c6.3,6.3,9.8,14.7,9.8,23.6c0,8.9-3.5,17.3-9.8,23.6l-37.8,37.8C527.2,578.1,518.7,581.3,510.1,581.3z M352.3,431.7l137,137.1
				c11.5,11.4,30.2,11.4,41.6,0l37.8-37.8c5.6-5.6,8.6-13,8.6-20.8c0-7.8-3.1-15.2-8.6-20.8L431.6,352.3
				c-13.7,9.4-33.8,7.7-45.6-4.2c-12.2-12.2-13.9-31.5-4.1-45.6l-1.5-1.5l-79.3,79.4l1.4,1.4c14-9.5,33.8-7.9,45.7,4.1
				C360.5,398.2,362.1,417.6,352.3,431.7z M262.3,290.3L118.5,146.3c-1.4-1.4-3.3-2.2-5.3-2.2c-2,0-3.9,0.8-5.3,2.2l-10.2,10.2
				L35.2,64.8l29.7-29.7l91.6,62.7l-10,10c-1.4,1.4-2.2,3.3-2.2,5.3c0,2,0.8,3.9,2.2,5.3l143.9,143.8L262.3,290.3z M113.2,140.2
				c3.1,0,5.9,1.2,8.1,3.4l141,141.1l22.4-22.4l-141.1-141c-2.2-2.2-3.4-5-3.4-8.1c0-3,1.2-6,3.4-8.1l6.7-6.7l-85-58.2l-25,25
				l58,85.1l6.8-6.8C107.3,141.4,110.2,140.2,113.2,140.2z"/>
		</g>
	</g>
	<g class="st3">
		
			<rect x="230.2" y="355.6" transform="matrix(0.7071 -0.7071 0.7071 0.7071 -185.2017 283.0876)" class="st2" width="37.9" height="18.9"/>
		<path class="st2" d="M242.4,388l-16.2-16.2l29.6-29.6l16.2,16.2L242.4,388z M231.9,371.8l10.6,10.6l24-24l-10.6-10.6L231.9,371.8z
			"/>
	</g>
	<g class="st3">
		
			<rect x="288.2" y="297.6" transform="matrix(0.7071 -0.7071 0.7071 0.7071 -127.2045 307.1108)" class="st2" width="37.9" height="18.9"/>
		<path class="st2" d="M300.4,330l-16.2-16.2l29.6-29.6l16.2,16.2L300.4,330z M289.9,313.8l10.6,10.6l24-24l-10.6-10.6L289.9,313.8z
			"/>
	</g>
	<g class="st3">
		
			<rect x="346.2" y="239.6" transform="matrix(0.7071 -0.7071 0.7071 0.7071 -69.2073 331.1341)" class="st2" width="37.9" height="18.9"/>
		<path class="st2" d="M358.4,272l-16.2-16.2l29.6-29.6l16.2,16.2L358.4,272z M347.9,255.8l10.6,10.6l24-24l-10.6-10.6L347.9,255.8z
			"/>
	</g>
</g>
<path id="Path_354" class="st4" d="M594,593.7V415.4h-19.6v-59.5h-29.8V243.2c19.3-32.2,9.5-74-22.4-93.9l-89.3-100
	c-11-36.5-49.7-57.4-86.2-46.3c-15.6,4.6-29.5,14.7-38.4,28.5L193.3,141c-18.1,17.2-21.5,44.8-8,66l-53.4,53.1l14.1,14.1l53.1-53.1
	c19.9,14.7,47.6,12.9,65.7-4l87.1-80.4c3.1,0.6,6.1,1.2,9.2,1.2l55.5,62.6c-0.3,2.5-0.3,4.6-0.3,7.1c0,12.6,3.4,24.9,9.8,35.6v112.9
	h-30.1v59.5h-19.6V594H198.2V415.7h-19.6v-19.9h19.9v-19.6h-20.9c-4.6-23-24.9-39.6-48.5-39.6h-89v39.6H19.9V396h19.6V416H19.9
	v178.3H0.3v19.9H614v-19.9H594V593.7z M59.5,356.2h69.3c12.6,0,23.6,8,27.9,19.9H59.5V356.2z M59.5,395.7h99.1v19.9H59.5V395.7z
	 M178.5,494.9h-19.9v19.9h19.9V594H39.8v-79.2H139v-19.9H39.8v-59.5h138.7V494.9z M534.8,207.6c0,27.3-22.1,49.4-49.4,49.4
	c-27.3,0-49.4-22.1-49.4-49.4s22.1-49.4,49.4-49.4S534.8,180.3,534.8,207.6z M525,264.4v91.8h-79.2v-91.8
	C469.4,281.3,501,281.3,525,264.4L525,264.4z M251,202.7c-13.2,12-33.8,11-45.7-2.5c-11.7-12.9-11-32.8,1.5-44.8l90.5-85.9
	c0,24.2,12.9,46.9,34.1,59.2L251,202.7z M366.3,118.6c-27.3,0-49.4-22.1-49.4-49.7c0-27.3,22.1-49.4,49.7-49.4S416,41.6,416,69.2
	C416,96.6,394,118.6,366.3,118.6L366.3,118.6z M422.8,178.2l-37.7-42.3c25.8-7.4,45.1-28.5,49.7-54.9l51.6,57.4h-0.9
	C458.4,138.6,434.1,153.9,422.8,178.2L422.8,178.2z M416,376.1h138.7v39.6H416V376.1z M574.4,593.7H396.1V435.3h178.3V593.7z"/>
<g class="st0">
	<defs>
		<rect id="SVGID_1_" width="614.2" height="614.2"/>
	</defs>
	<clipPath id="SVGID_2_" class="st3">
		<use xlink:href="#SVGID_1_"  style="overflow:visible;"/>
	</clipPath>
	<g class="st5">
		
			<rect x="476.1" y="318.7" transform="matrix(-0.5083 -0.8612 0.8612 -0.5083 480.2007 1002.3478)" class="st6" width="100.4" height="90.8"/>
		<path class="st2" d="M510.4,439.3l-57.6-97.6l89.3-52.7l57.6,97.6L510.4,439.3z M470.5,346.2l44.4,75.3l67-39.5l-44.4-75.3
			L470.5,346.2z"/>
	</g>
	<g class="st5">
		<path class="st7" d="M1036.8,149l-77-125.3l103.1-63.3c7.4-4.5,16.1-5.9,24.5-3.9c8.4,2,15.6,7.2,20.1,14.5l43,70
			c4.5,7.4,5.9,16.1,3.9,24.5c-2,8.4-7.2,15.6-14.5,20.1L1036.8,149z M977.7,28l63.4,103.2l92-56.5c4.4-2.7,7.5-7,8.7-12.1
			s0.4-10.3-2.3-14.7l-43-70c-2.7-4.4-7-7.5-12.1-8.7c-5.1-1.2-10.3-0.4-14.7,2.3L977.7,28z"/>
	</g>
	<g class="st5">
		<path class="st2" d="M588.5,393.1l-57.6-97.6L980.4,30.2l57.6,97.6L588.5,393.1z M548.7,300.1l44.4,75.3l427.1-252.1L975.8,48
			L548.7,300.1z"/>
	</g>
	<g class="st5">
		<circle class="st6" cx="1082.7" cy="34.5" r="72.6"/>
		<path class="st7" d="M1039.4,100.7c-4.5-3-8.8-6.5-12.7-10.4c-14.9-15-23.1-34.9-23-56c0.1-21.1,8.3-41,23.3-55.9s34.9-23.1,56-23
			c43.6,0.1,79,35.7,78.9,79.3l0,0c-0.1,43.6-35.7,79-79.3,78.9C1067,113.5,1052.1,109,1039.4,100.7z M1119-20.8
			c-10.4-6.8-22.8-10.8-36.1-10.9c-17.7,0-34.3,6.8-46.8,19.2c-12.5,12.5-19.4,29-19.5,46.7c0,17.7,6.8,34.3,19.2,46.8
			c12.5,12.5,29,19.4,46.7,19.5c36.5,0.1,66.2-29.5,66.3-65.9l0,0C1148.9,11.5,1137-8.9,1119-20.8z"/>
	</g>
	<g class="st5">
		<path class="st6" d="M366.2,352.7l60.9-94.6l154,99.2c5.5,3.6,7.2,11,3.6,16.6l-47.9,74.4c-3.6,5.5-11,7.2-16.6,3.6L366.2,352.7z"
			/>
	</g>
	<g class="st5">
		<path class="st2" d="M357.2,354.6l67.9-105.5l147.7,95.1c0.1,0.1,0.2,0.1,0.3,0.2c14.8,9.8,19.1,29.7,9.4,44.7l-32.8,50.9
			c-9.7,15-29.8,19.4-44.8,9.7L357.2,354.6z M429.1,267.1l-53.9,83.7L512,438.9c9,5.8,21.1,3.2,26.9-5.8l32.8-50.9
			c5.8-9,3.2-20.9-5.7-26.8c-0.1,0-0.1-0.1-0.2-0.1L429.1,267.1z"/>
	</g>
	<g class="st5">
		<path class="st6" d="M425.6,551.2l-83.4-53.7c-5.5-3.6-7.2-11-3.6-16.6l132.9-206.3c3.6-5.5,11-7.2,16.6-3.6l83.4,53.7
			c5.5,3.6,7.2,11,3.6,16.6L442.2,547.6C438.6,553.1,431.2,554.7,425.6,551.2z"/>
	</g>
	<g class="st5">
		<path class="st2" d="M350.1,510.3c-7.1-4.7-12-11.9-13.8-20.2c-1.8-8.5-0.3-17.2,4.4-24.4l117.8-182.8
			c4.7-7.3,11.9-12.3,20.4-14.1c8.5-1.8,17.2-0.3,24.4,4.4l60,38.6c0.1,0.1,0.2,0.1,0.3,0.2c7.1,4.7,12,11.9,13.8,20.2
			c1.8,8.5,0.3,17.2-4.4,24.4L455.2,539.4c-9.7,15-29.8,19.4-44.8,9.7l-60-38.6C350.3,510.4,350.2,510.3,350.1,510.3z M556.4,322.7
			c-0.1,0-0.1-0.1-0.2-0.1l-60-38.6c-4.3-2.8-9.5-3.7-14.7-2.6c-5.1,1.1-9.5,4.1-12.3,8.5L351.6,472.6c-2.8,4.3-3.7,9.5-2.6,14.6
			c1.1,5.1,4.1,9.5,8.5,12.3l60,38.6c9,5.8,21.1,3.2,26.9-5.8l117.8-182.8c2.8-4.3,3.7-9.5,2.6-14.6
			C563.6,329.8,560.7,325.5,556.4,322.7z"/>
	</g>
	<g class="st5">
		<path class="st6" d="M45.4,287.4l107.3-166.6c1.5-2.3,4.6-3,6.9-1.5L201,146c2.3,1.5,3,4.6,1.5,6.9L95.2,319.5
			c-1.5,2.3-4.6,3-6.9,1.5l-41.4-26.7C44.6,292.8,43.9,289.7,45.4,287.4z"/>
	</g>
	<g class="st5">
		<path class="st2" d="M48.1,302.8c-7.9-5.2-10.1-15.8-5-23.7l0,0l101.1-156.9c5.1-8,15.8-10.3,23.8-5.2l31.7,20.4
			c0,0,0.1,0.1,0.1,0.1c7.9,5.2,10.1,15.8,5,23.7L103.7,318.2c-2.5,3.9-6.3,6.5-10.9,7.5c-4.5,1-9.1,0.1-13-2.3l-31.7-20.4
			C48.2,302.9,48.1,302.8,48.1,302.8z M54,286.1c-1.3,1.9-0.7,4.7,1.3,5.9l31.7,20.4c0.9,0.6,2.1,0.8,3.2,0.6
			c1.1-0.2,2.1-0.9,2.7-1.8l101.1-156.9c0.6-0.9,0.8-2.1,0.6-3.2c-0.2-1.1-0.9-2.1-1.8-2.7l-31.7-20.4c-1.9-1.3-4.6-0.7-5.9,1.3
			L54,286.1z"/>
	</g>
	<g class="st5">
		<path class="st6" d="M143.1,270.7L75.4,227c-1.5-1-1.9-3-1-4.5l28.5-44.3c1-1.5,3-1.9,4.5-1l67.7,43.6c1.5,1,1.9,3,1,4.5
			l-28.5,44.3C146.6,271.2,144.6,271.6,143.1,270.7z"/>
	</g>
	<g class="st5">
		<path class="st2" d="M74.9,234.5c-6.1-4-7.9-12.3-3.9-18.5l24.5-38c1.9-3,5-5.1,8.5-5.9c3.5-0.8,7.1-0.1,10.1,1.8l61.4,39.6
			c3,2,5.1,5,5.9,8.5c0.8,3.5,0.1,7.1-1.8,10.1l-24.5,38c-1.9,3-5,5.1-8.5,5.9c-3.5,0.8-7.1,0.1-10.1-1.8L75,234.5
			C75,234.5,74.9,234.5,74.9,234.5z M168.5,224.4C168.5,224.4,168.5,224.4,168.5,224.4L107,184.8c0,0-0.2-0.1-0.4-0.1
			c-0.2,0-0.3,0.2-0.3,0.2l-24.5,38c-0.1,0.2-0.1,0.5,0.1,0.7c0,0,0,0,0,0l61.4,39.6c0,0,0.2,0.1,0.4,0.1c0.2,0,0.3-0.2,0.3-0.2
			l24.5-38c0,0,0.1-0.2,0.1-0.4C168.6,224.5,168.5,224.4,168.5,224.4z"/>
	</g>
	<g class="st5">
		<polygon class="st6" points="278.7,261.2 142.2,270.1 174.2,220.4 310.8,211.5 		"/>
	</g>
	<g class="st5">
		<path class="st2" d="M138.6,275.5c-0.8-0.5-1.5-1.3-2-2.1c-1.2-2.1-1.2-4.7,0.1-6.8l32-49.7c1.1-1.7,3-2.8,5-3l136.6-8.9
			c2.4-0.2,4.8,1.1,6,3.2c1.2,2.1,1.2,4.7-0.1,6.8l-32,49.7c-1.1,1.7-3,2.8-5,3l-136.6,8.9C141.2,276.6,139.8,276.3,138.6,275.5z
			 M177.9,226.6l-23.3,36.1l120.5-7.8l23.3-36.1L177.9,226.6z"/>
	</g>
	<g class="st5">
		<path class="st6" d="M269.2,276l47.9-74.4c3.6-5.5,11-7.2,16.6-3.6l101.9,65.6c5.5,3.6,7.2,11,3.6,16.6l-47.9,74.4
			c-3.6,5.5-11,7.2-16.6,3.6l-101.9-65.6C267.3,289,265.7,281.5,269.2,276z"/>
	</g>
	<g class="st5">
		<path class="st2" d="M280.8,305.4c-7.1-4.7-12-11.9-13.8-20.2c-1.8-8.5-0.3-17.2,4.4-24.4l32.8-50.9c4.7-7.3,11.9-12.3,20.4-14.1
			c8.5-1.8,17.2-0.3,24.4,4.4l78.4,50.5c7.3,4.8,12.3,11.9,14.1,20.4c1.8,8.5,0.3,17.2-4.4,24.4l-32.8,50.9
			c-9.7,15-29.8,19.4-44.8,9.7L281,305.6C281,305.5,280.9,305.4,280.8,305.4z M282.2,267.7c-5.8,9-3.2,20.9,5.7,26.8
			c0.1,0,0.1,0.1,0.2,0.1l78.4,50.5c9,5.8,21.1,3.2,26.9-5.8l32.8-50.9c2.8-4.3,3.7-9.5,2.6-14.6c-1.1-5-4-9.3-8.3-12.1
			c-0.1,0-0.1-0.1-0.2-0.1L342,211c-4.3-2.8-9.5-3.7-14.7-2.6c-5.1,1.1-9.5,4.1-12.3,8.5L282.2,267.7z"/>
	</g>
	<g class="st5">
		<path class="st6" d="M67.6,307.7l-17,26.3c-13,20.2-20,43.7-20.1,67.8l-0.1,41.8"/>
	</g>
	<g class="st5">
		<path class="st2" d="M16.4,443.5l0.1-41.8c0.1-26.8,7.8-52.8,22.3-75.4l17-26.3l23.6,15.2l-17,26.3c-11.6,18-17.8,38.8-17.8,60.2
			l-0.1,41.8L16.4,443.5z"/>
	</g>
	<g class="st5">
		<line class="st6" x1="31" y1="524.7" x2="30.7" y2="443.2"/>
	</g>
	<g class="st5">
		<polygon class="st2" points="16.9,524.8 4.5,443.3 56.8,443.1 45,524.7 		"/>
	</g>
	<g class="st5">
		<path class="st2" d="M176.4,138.4c-6.4-4.2-8.3-12.9-4.1-19.4C247.4,2.5,403.4-31.3,520.1,43.8l232.8,150l68,43.9
			c142,91.7,321.4,96.3,468,12c6.7-3.9,15.3-1.5,19.2,5.2c3.9,6.7,1.6,15.3-5.2,19.2c-75,43.1-160.4,65.1-247,63.6
			c-88.8-1.6-175.3-28-250.2-76.3l-68-43.9l-232.8-150c-50.2-32.3-110-43.2-168.3-30.5s-108.3,47.2-140.6,97.4
			c-4.2,6.5-12.9,8.4-19.4,4.2C176.5,138.5,176.4,138.5,176.4,138.4z"/>
	</g>
	<rect class="st8" width="614.2" height="614.2"/>
</g>
<g id="Group_555" transform="translate(0.25 0.318)" class="st0">
	<g id="Group_554" transform="translate(0)" class="st3">
		<g id="Group_390" transform="translate(5.632 5.632)">
			<g id="Group_389">
				<g id="Path_321">
					<path class="st2" d="M284.8,78.2H90.2c-6.8,0-12.3,5.4-12.3,12v76.7c0,6.9,5.4,12.3,12.3,12.3h194.5c6.9,0,12.3-5.4,12.3-12.3
						V90.2C297.1,83.6,291.6,78.2,284.8,78.2z M272.7,154.9H102.6v-52.4h170.2V154.9z"/>
				</g>
			</g>
		</g>
		<g id="Group_392" transform="translate(17.928 17.844)">
			<g id="Group_391">
				<g id="Path_322">
					<path class="st2" d="M284.1,232.3c-13.6,0-26.3,5.3-35.9,14.8c-9.6,9.6-14.8,22.3-14.8,35.9s5.3,26.3,14.8,35.8
						c9.6,9.6,22.3,14.8,35.9,14.8c13.6,0,26.3-5.3,35.9-14.8c9.5-9.5,14.8-22.3,14.8-35.8C334.5,255,311.8,232.3,284.1,232.3z
						 M310.4,283l0,0.1c-0.4,14.4-12.2,26.1-26.3,26.1c-14.5,0-26.3-11.8-26.3-26.3s11.8-26.3,26.3-26.3
						C298.6,256.6,310.4,268.4,310.4,283L310.4,283z"/>
				</g>
			</g>
		</g>
		<g id="Group_394" transform="translate(17.928 28.076)">
			<g id="Group_393">
				<g id="Path_323">
					<path class="st2" d="M284.1,361.7c-13.6,0-26.3,5.3-35.9,14.8c-9.6,9.6-14.8,22.3-14.8,35.8s5.3,26.3,14.8,35.9
						c9.6,9.6,22.3,14.8,35.9,14.8c13.6,0,26.3-5.3,35.9-14.8c9.5-9.5,14.8-22.3,14.8-35.8C334.5,384.5,311.8,361.7,284.1,361.7z"/>
					<path class="st6" d="M284.1,385.8c-14.5,0-26.3,11.8-26.3,26.3c0,14.5,11.8,26.3,26.3,26.3c14.1,0,25.9-11.7,26.3-26.1l0-0.1
						v-0.1C310.4,397.6,298.6,385.8,284.1,385.8z M284.1,385.8c-14.5,0-26.3,11.8-26.3,26.3c0,14.5,11.8,26.3,26.3,26.3
						c14.1,0,25.9-11.7,26.3-26.1l0-0.1v-0.1C310.4,397.6,298.6,385.8,284.1,385.8z M284.1,385.8c-14.5,0-26.3,11.8-26.3,26.3
						c0,14.5,11.8,26.3,26.3,26.3c14.1,0,25.9-11.7,26.3-26.1l0-0.1v-0.1C310.4,397.6,298.6,385.8,284.1,385.8z M284.1,385.8
						c-14.5,0-26.3,11.8-26.3,26.3c0,14.5,11.8,26.3,26.3,26.3c14.1,0,25.9-11.7,26.3-26.1l0-0.1v-0.1
						C310.4,397.6,298.6,385.8,284.1,385.8z M284.1,385.8c-14.5,0-26.3,11.8-26.3,26.3c0,14.5,11.8,26.3,26.3,26.3
						c14.1,0,25.9-11.7,26.3-26.1l0-0.1v-0.1C310.4,397.6,298.6,385.8,284.1,385.8z M284.1,385.8c-14.5,0-26.3,11.8-26.3,26.3
						c0,14.5,11.8,26.3,26.3,26.3c14.1,0,25.9-11.7,26.3-26.1l0-0.1v-0.1C310.4,397.6,298.6,385.8,284.1,385.8z M284.1,385.8
						c-14.5,0-26.3,11.8-26.3,26.3c0,14.5,11.8,26.3,26.3,26.3c14.1,0,25.9-11.7,26.3-26.1l0-0.1v-0.1
						C310.4,397.6,298.6,385.8,284.1,385.8z"/>
				</g>
			</g>
		</g>
		<g id="Group_396">
			<g id="Group_395">
				<g id="Path_324">
					<path class="st2" d="M575,153.5l-4.5-1.7V54c0-4-2.4-7.8-6-9.7L492.8,8.1c-1.6-0.8-3.3-1.1-5-1.1c-4.2,0-8,2.3-10,6
						c-1.3,2.6-1.6,5.5-0.7,8.3c0.9,2.8,2.9,5.1,5.6,6.5l61.9,31l3.9,1.9v91.1l-4.5,1.7c-9.3,3.6-17.1,9.7-22.8,17.9
						c-5.7,8.1-8.6,17.6-8.6,27.5v108c0,19.8,12.6,37.7,31.3,44.3l4.6,1.7V416c0,33.6-27.4,61-61,61h-61V54c0-25.9-21.1-47-47-47
						H53.8c-12.5,0-24.2,4.9-33.1,13.8C11.8,29.6,6.9,41.4,6.8,54v469.7c0,25.9,21.1,47,47,47h25.1v25.1c0,6.1,5,11.1,11.1,11.1
						c6.2,0,11.1-4.9,11.1-11.1v-25.1h231.8v25.1c0,6.1,5,11.1,11.1,11.1c6.2,0,11.1-4.9,11.1-11.1v-25.1h25.1c25.9,0,47-21.1,47-47
						v-25.1h61c22.2,0,43-8.6,58.6-24.3c15.6-15.6,24.3-36.5,24.3-58.6v-63.2l4.6-1.7c18.7-6.7,31.3-24.5,31.3-44.3V198.9
						C606.4,178.5,593.8,160.7,575,153.5z M404.7,523.7c0,13.8-11.3,25.1-25.1,25.1H53.8c-13.8,0-25.1-11.3-25.1-25.1V54
						c0-13.8,11.3-25.1,25.1-25.1h326.1c13.8,0,25.1,11.3,25.1,25.1L404.7,523.7z M584.5,306.8c0,13.8-11.3,25.1-25.1,25.1
						c-14.1,0-25.1-11-25.1-25.1v-61h50.2V306.8z M584.5,223.9h-49.9V199c-0.3-6.5,1.9-12.9,6.3-17.8c4.4-5,10.5-8,17.1-8.4
						c0.5,0,1,0,1.5,0c13.1,0,24.1,10.3,24.9,23.5l0,0.2V223.9z"/>
				</g>
			</g>
		</g>
		<g id="Group_398" transform="translate(5.632 20.66)">
			<g id="Group_397">
				<g id="Path_325">
					<path class="st2" d="M218.5,279.9l0,0.2c0.1,3.2-1.1,6.2-3.3,8.5c-2.3,2.3-5.4,3.6-8.7,3.6H89.9c-6.6,0-12-5.5-12-12.3
						c0-6.6,5.5-12,12.3-12h116.6c3.2,0,6.2,1.3,8.5,3.6c2.2,2.2,3.3,5.2,3.2,8.2L218.5,279.9z"/>
				</g>
			</g>
		</g>
		<g id="Group_400" transform="translate(5.632 25.803)">
			<g id="Group_399">
				<g id="Path_326">
					<path class="st2" d="M219.2,345.5c0,6.9-5.4,12.2-12.3,12.2H90.2c-6.9,0-12.3-5.4-12.3-12.3c0-6.9,5.4-12.3,12.3-12.3h116.6
						C213.4,333.1,218.9,338.7,219.2,345.5z"/>
				</g>
			</g>
		</g>
		<g id="Group_402" transform="translate(5.632 31.032)">
			<g id="Group_401">
				<g id="Path_327">
					<path class="st2" d="M219.2,411.6c0,6.9-5.4,12.2-12.3,12.2H90.2c-6.9,0-12.3-5.4-12.3-12.3c0-6.9,5.4-12.3,12.3-12.3h116.6
						C213.4,399.1,218.9,404.7,219.2,411.6z"/>
				</g>
			</g>
		</g>
		<g id="Group_404" transform="translate(23.317 5.631)">
			<g id="Group_403">
				<g id="Ellipse_1">
					<path class="st2" d="M326,90.2c0,6.8-5.5,12.3-12.3,12.3c-6.8,0-12.3-5.5-12.3-12.3c0-6.8,5.5-12.3,12.3-12.3
						C320.5,77.9,326,83.4,326,90.2z"/>
				</g>
			</g>
		</g>
		<g id="Group_406" transform="translate(23.317 10.287)">
			<g id="Group_405">
				<g id="Ellipse_2">
					<path class="st2" d="M326,149.2c0,6.8-5.5,12.3-12.3,12.3c-6.8,0-12.3-5.5-12.3-12.3c0-6.8,5.5-12.3,12.3-12.3
						C320.5,136.9,326,142.4,326,149.2z"/>
				</g>
			</g>
		</g>
	</g>
</g>
<g class="st0">
	<g class="st3">
		<path class="st9" d="M318.3,2.1h-0.1c-51.6,0-100.2,20.3-137,57.1c-36.8,36.8-57,85.5-56.9,137c0,47.9,22.5,107.5,41.7,144
			c10.2,18.2,28.2,50.3,49.1,87.4c35.3,62.7,75.3,133.8,91.4,162.9l11.8,20.6l12.1-22.2l0.2-0.2c9.5-16.2,106.6-188.1,140.2-248.8
			l0.2-0.3c20.8-35.1,42.3-98.4,42.3-143.6C513.2,89.1,425.8,2.1,318.3,2.1z M448.7,327.5l-4,7.1c-26.9,47.5-83,146.3-114.6,204
			l-11.4,20.8l-11.8-20.5C271,476,210.3,367.3,188.8,327.3c-18.4-33.8-39.9-88.5-40-131c0-44.8,17.7-87.1,49.9-119.1
			c32.1-31.9,74.5-49.5,119.5-49.5h0.1c45.3,0,87.7,17.4,119.3,49c31.7,31.6,49.1,74,49.2,119.4C486.8,236.7,467,295.9,448.7,327.5z
			"/>
	</g>
	<g class="st3">
		<path class="st10" d="M318.3,105.3L318.3,105.3c-50.2,0-90.9,40.8-90.9,90.9c0,23.9,9.5,46.5,26.8,63.5c17.2,17,40,26.4,64.1,26.4
			h0.1c50.1,0,90.8-40.4,90.8-89.9v-0.1C409.1,146.1,368.4,105.3,318.3,105.3z M367,244.6c-13.1,12.8-30.4,19.9-48.7,19.9h0
			c-38.2,0-69.2-30.6-69.2-68.2c0-38.2,31-69.3,69.2-69.3h0c38.2,0,69.2,31,69.3,69.2C387.5,214.4,380.2,231.6,367,244.6z"/>
	</g>
</g>
</svg>
