<?xml version="1.0" encoding="utf-8"?>
<!-- Generator: Adobe Illustrator 23.0.3, SVG Export Plug-In . SVG Version: 6.00 Build 0)  -->
<svg version="1.1" id="Layer_1" xmlns="http://www.w3.org/2000/svg" xmlns:xlink="http://www.w3.org/1999/xlink" x="0px" y="0px"
	 viewBox="0 0 719.71 118.38" style="enable-background:new 0 0 719.71 118.38;" xml:space="preserve">
<style type="text/css">
	.st0{fill-rule:evenodd;clip-rule:evenodd;fill:#008A46;}
	.st1{fill:#008A46;}
</style>
<g>
	<path class="st0" d="M130.68,17.48c1.22,0,2.23-1.01,2.23-2.23V2.65c0-1.22-1.01-2.23-2.23-2.23h-16.27
		c-1.22,0-2.23,1.01-2.23,2.23v12.6c0,1.22,1.01,2.23,2.23,2.23H130.68z"/>
	<path class="st0" d="M210.17,44.48c1.22,0,2.23-1.01,2.23-2.23V28.93c0-1.22-1.01-2.23-2.23-2.23H193.9
		c-1.22,0-2.23,1.01-2.23,2.23v13.32c0,1.22,1.01,2.23,2.23,2.23H210.17z"/>
	<path class="st0" d="M130.68,68.96c1.22,0,2.23-1.01,2.23-2.23v-37.8c0-1.22-1.01-2.23-2.23-2.23h-16.27
		c-1.22,0-2.23,1.01-2.23,2.23v37.8c0,1.22,1.01,2.23,2.23,2.23H130.68z"/>
	<path class="st0" d="M636.48,17.48c1.22,0,2.23-1.01,2.23-2.23V2.65c0-1.22-1.01-2.23-2.23-2.23h-16.34
		c-1.22,0-2.23,1.01-2.23,2.23v12.6c0,1.22,1.01,2.23,2.23,2.23H636.48z"/>
	<path class="st0" d="M636.48,68.96c1.22,0,2.23-1.01,2.23-2.23v-37.8c0-1.22-1.01-2.23-2.23-2.23h-16.34
		c-1.22,0-2.23,1.01-2.23,2.23v37.8c0,1.22,1.01,2.23,2.23,2.23H636.48z"/>
	<path class="st0" d="M183.6,69.11c-21.24,0-38.45-15.12-38.45-34.27c0-19.22,17.21-34.34,38.45-34.34l26.57-0.07
		c1.22,0,2.23,1.01,2.23,2.23v12.6c0,1.22-1.01,2.23-2.23,2.23H183.6c-10.08,0-18.22,7.2-18.22,17.35
		c0,10.08,8.14,16.42,18.22,16.42l26.57-0.07c1.22,0,2.23,0.94,2.23,2.16v13.39c0,1.22-1.01,2.23-2.23,2.23L183.6,69.11z"/>
	<path class="st0" d="M690.91,69.11c-21.24,0-38.45-15.12-38.45-34.27c0-19.22,17.21-34.34,38.45-34.34l26.57-0.07
		c1.22,0,2.23,1.01,2.23,2.23v12.6c0,1.22-1.01,2.23-2.23,2.23h-26.57c-10.08,0-18.22,7.2-18.22,17.35
		c0,10.08,8.14,16.42,18.22,16.42l26.57-0.07c1.22,0,2.23,0.94,2.23,2.16v13.39c0,1.22-1.01,2.23-2.23,2.23L690.91,69.11z"/>
	<path class="st0" d="M236.66,26.84c-5.47,0-9.94,4.46-9.94,10.01v29.88c0,1.22,0.94,2.23,2.16,2.23h16.34
		c1.22,0,2.23-1.01,2.23-2.23V46.79c0-1.22,1.01-2.16,2.23-2.16h19.01c1.22,0,2.23,0.94,2.23,2.16v19.94c0,1.22,1.01,2.23,2.23,2.23
		h16.27c1.22,0,2.23-1.01,2.23-2.23V29.72l0.07-18.5c0-6.26-4.46-10.73-9.94-10.73l-52.92-0.07c-1.22,0-2.16,1.01-2.16,2.23v12.6
		c0,1.22,0.94,2.23,2.16,2.23l20.81,0.07h19.01c1.22,0,2.23,1.01,2.23,2.23v4.75c0,1.22-1.01,2.23-2.23,2.23L236.66,26.84z"/>
	<path class="st0" d="M334.37,49.16c0,1.22,1.01,2.23,2.23,2.23h18.94l2.38,0.07c1.22,0,2.23,1.01,2.23,2.23v13.32
		c0,1.22-1.01,2.23-2.23,2.23h-34.27c-5.47,0-9.94-4.46-9.94-10.01l-0.07-21.6v-8.71c0-1.22,0.94-2.23,2.23-2.23h16.27
		c1.22,0,2.23,1.01,2.23,2.23V49.16z"/>
	<path class="st0" d="M96.41,10.43c0-5.47-4.46-9.94-10.01-9.94h-9.94H2.23C1.01,0.49,0,1.5,0,2.72v64.15
		c0,1.22,1.01,2.23,2.23,2.23h16.34c1.22,0,2.16-1.01,2.16-2.23V19.71c0-1.22,1.01-2.23,2.23-2.23h12.6c1.22,0,2.23,1.01,2.23,2.23
		v47.16c0,1.22,1.01,2.23,2.23,2.23H56.3c1.22,0,2.23-1.01,2.23-2.23V19.71c0-1.22,1.01-2.23,2.23-2.23h12.6
		c1.22,0,2.23,1.01,2.23,2.23v47.16c0,1.22,0.94,2.23,2.23,2.23H94.1c1.22,0,2.23-1.01,2.23-2.23V20.29L96.41,10.43z"/>
	<path class="st0" d="M576.58,17.27c1.22,0,2.23,1.01,2.23,2.23v47.23c0,1.22,0.94,2.16,2.16,2.16h16.34c1.22,0,2.23-0.94,2.23-2.16
		V20.15v-9.86c0-5.54-4.46-10.01-9.94-10.01h-9.94l-44.86,0.07c-1.22,0-2.23,0.94-2.23,2.23v64.15c0,1.22,1.01,2.16,2.23,2.16h16.27
		c1.22,0,2.23-0.94,2.23-2.16V19.5c0-1.22,1.01-2.23,2.23-2.23H576.58z"/>
	<path class="st0" d="M358.13,17.48c1.22,0,2.16-1.01,2.16-2.23V2.65c0-1.22-0.94-2.23-2.16-2.23h-56.81
		c-1.22,0-2.23,1.01-2.23,2.23v12.6c0,1.22,1.01,2.23,2.23,2.23H358.13z"/>
	<path class="st0" d="M430.99,48.73c0-10.15-5.54-13.03-14.98-13.54c9.43-0.72,14.98-5.76,14.98-15.84v-1.37
		c0-11.02-8.86-17.5-19.87-17.5l-39.74-0.07c-1.22,0-2.23,1.01-2.23,2.23v12.6c0,1.22,1.01,2.23,2.23,2.23h35.28
		c2.02,0,3.6,1.66,3.6,3.6v2.23c0,1.94-1.58,3.53-3.6,3.53h-35.28c-1.22,0-2.23,1.01-2.23,2.23v12.6c0,1.22,1.01,2.16,2.23,2.16
		h35.28c1.94,0,3.53,1.51,3.6,3.46v19.44c0,1.22,1.01,2.23,2.23,2.23h16.27c1.22,0,2.23-1.01,2.23-2.23V48.73z"/>
	<path class="st0" d="M480.24,69.54c21.24,0,38.45-15.55,38.45-34.7c0-19.22-17.21-34.78-38.45-34.78v17.14
		c10.08,0,18.22,7.49,18.22,17.64c0,10.08-8.14,17.57-18.22,17.57V69.54z M480.24,0.06c-21.24,0-38.45,15.55-38.45,34.78
		c0,19.15,17.21,34.7,38.45,34.7l0,0V52.4l0,0c-10.08,0-18.29-7.49-18.29-17.57c0-10.15,8.21-17.64,18.29-17.64l0,0V0.06
		L480.24,0.06z"/>
	<path class="st1" d="M13.62,107.47h0.08l4.54-18.06h10.41l4.41,18.06h0.08l3.48-18.06h9.68l-6.8,28.27H27.83L23.1,99.21h-0.08
		l-4.5,18.47H6.61l-6.6-28.27h10.16L13.62,107.47z"/>
	<path class="st1" d="M47.6,89.41h24.5v6.8H58.21v4.01H71.5v6.8H58.21v3.85h14.17v6.8H47.6V89.41z"/>
	<path class="st1" d="M75.71,89.41h10.85v19.92h13.32v8.34H75.71V89.41z"/>
	<path class="st1" d="M102.73,89.41h15.92c8.1,0,13.81,2.75,13.81,14.21c0,10.69-6.16,14.05-14.25,14.05h-15.47V89.41z
		 M113.58,110.63h2.71c3.93,0,4.82-2.59,4.82-7.29c0-4.86-0.97-7.37-4.86-7.37h-2.67V110.63z"/>
	<path class="st1" d="M146.35,89.41v28.27h-10.85V89.41H146.35z"/>
	<path class="st1" d="M150.23,89.41h16.24l5.22,19.92h0.08V89.41h9.31v28.27h-15.96l-5.51-20.49h-0.08v20.49h-9.31V89.41z"/>
	<path class="st1" d="M212.4,116.62c-3.72,1.09-7.25,1.54-11.7,1.54c-9.39,0-16.93-4.94-16.93-15.03c0-9.48,7.86-14.21,16.93-14.21
		c5.3,0,7.86,0.41,10.57,1.05v7.61c-1.54-0.89-4.41-1.62-7.45-1.62c-5.39,0-8.95,2.71-8.95,7.86c0,3.89,1.58,7.29,5.91,7.29
		c0.77,0,1.66,0,2.31-0.24v-7.53h9.31V116.62z"/>
	<path class="st1" d="M242.54,117.83h-5.09l-10.71-28.42h4.56l8.76,24.84h0.08l9-24.84h4.28L242.54,117.83z"/>
	<path class="st1" d="M266.69,89.41h4.28l12.01,28.42h-4.44l-2.89-7.17h-13.93l-2.89,7.17h-4.28L266.69,89.41z M268.68,93.24
		l-5.66,14.09h11.32L268.68,93.24z"/>
	<path class="st1" d="M290.15,89.41h4.07v24.84h11.89v3.58h-15.96V89.41z"/>
	<path class="st1" d="M333.64,106.06c0,7.98-4.03,12.26-11.04,12.26c-7,0-11.04-4.28-11.04-12.26V89.41h4.07v16.13
		c0,5.46,1.71,9.2,6.96,9.2c5.25,0,6.96-3.75,6.96-9.2V89.41h4.07V106.06z"/>
	<path class="st1" d="M344.08,89.41H360v3.58h-11.85v8.31h10.79v3.58h-10.79v9.37H360v3.58h-15.92V89.41z"/>
</g>
</svg>
